<?xml version="1.0" encoding="windows-1252"?>
<svg xmlns="http://www.w3.org/2000/svg" viewBox="0 0 54 54">
  <defs>
    <style>.cls-1{fill:#fff;}</style>
  </defs>
  <title>Anafi</title>
  <g id="CERCLES_BLANCS">
    <path class="cls-1" d="M27,1.2A25.8,25.8,0,1,1,1.2,27,25.83,25.83,0,0,1,27,1.2M27,0A27,27,0,1,0,54,27,27,27,0,0,0,27,0Z"/>
  </g>
  <g id="EN_COURS">
    <path class="cls-1" d="M37.81,18a.6.6,0,0,0,0-.81,7.45,7.45,0,0,0-5.72-2.79A7.35,7.35,0,0,0,27,16.49c-2.06-1.83-5.77-2.64-9.45-.33a7.27,7.27,0,0,0-3.47,6.64V38.42H11a.6.6,0,0,0,0,1.2H25.7a.6.6,0,0,0,0-1.2H22.54V36.94a.6.6,0,1,0-1.2,0v1.48h-6V22.73a6.15,6.15,0,0,1,2.92-5.56c3.36-2.11,6.4-1.21,8,.2a8.68,8.68,0,0,0,.36,10.93.6.6,0,0,0,.43.2h0a.6.6,0,0,0,.42-.18l2-2a4.19,4.19,0,0,0,2.82,1.15,4.59,4.59,0,0,0,4.41-4.75A4.94,4.94,0,0,0,35.83,20ZM27.08,27a7.39,7.39,0,0,1-1.42-4.38c0-3.89,2.91-7.05,6.48-7.05a6.09,6.09,0,0,1,4.43,1.95l-1.86,1.86a.58.58,0,0,0-.11.07l-5.06,5.09Zm8.41-4.28a3.39,3.39,0,0,1-3.21,3.55,3,3,0,0,1-2-.78l.06-.07L35,20.82A3.77,3.77,0,0,1,35.49,22.74Z"/>
    <path class="cls-1" d="M43,22.63H39.36a.6.6,0,0,0,0,1.2H43a.6.6,0,1,0,0-1.2Z"/>
    <path class="cls-1" d="M37.8,27.51a.6.6,0,1,0-.83.86l2.66,2.56a.6.6,0,0,0,.83-.86Z"/>
    <path class="cls-1" d="M32.82,29.28h0a.6.6,0,0,0-.59.61l.07,3.69a.6.6,0,0,0,.6.59h0a.6.6,0,0,0,.59-.61l-.07-3.69A.6.6,0,0,0,32.82,29.28Z"/>
  </g>
</svg>
