<?xml version="1.0" encoding="windows-1252"?>
<!-- Generator: Adobe Illustrator 19.0.0, SVG Export Plug-In . SVG Version: 6.00 Build 0)  -->
<svg version="1.1" id="Layer_1" xmlns="http://www.w3.org/2000/svg" xmlns:xlink="http://www.w3.org/1999/xlink" x="0px" y="0px" viewBox="0 0 512 512" style="enable-background:new 0 0 512 512;" xml:space="preserve">
<g>
	<g>
		<path d="M493.625,270.758c-8.855-26.189-29.777-47.111-55.967-55.967c-3.461-1.171-7.281-0.275-9.864,2.307l-22.105,22.105V64.617    c0-23.271-18.932-42.203-42.203-42.203h-59.343C301.359,9.616,289.946,0,276.325,0H147.238c-13.622,0-25.034,9.616-27.821,22.415    H60.083c-23.277,0-42.215,18.933-42.215,42.203v405.168c0,23.277,18.938,42.215,42.215,42.215h303.405    c23.271,0,42.203-18.938,42.203-42.215V366.251l85.629-85.629C493.902,278.039,494.795,274.217,493.625,270.758z M408.221,263.827    c5.132,2.236,9.95,5.073,14.367,8.426l-87.59,87.59c-4.214-3.468-8.723-6.582-13.476-9.317L408.221,263.827z M310.522,375.934    l1.7-8.62c11.952,6.942,21.94,16.928,28.88,28.88l-8.62,1.7c-2.136-4.815-5.152-9.221-8.946-13.015    C319.744,381.088,315.338,378.072,310.522,375.934z M312.728,401.793l-7.602,1.5l1.499-7.603c1.181,0.819,2.303,1.733,3.334,2.766    C310.992,399.489,311.909,400.612,312.728,401.793z M304.802,41.615h58.688c12.682,0,23.001,10.32,23.001,23.002v193.785    l-26.881,26.881V78.096c0-5.302-4.297-9.6-9.6-9.6h-45.208V41.615z M137.96,28.478h0.001c0-5.115,4.161-9.278,9.276-9.278h129.087    c5.115,0,9.276,4.161,9.276,9.278v3.488c0,0.017-0.003,0.032-0.003,0.05c0,0.018,0.003,0.033,0.003,0.05v44.149    c0,5.115-4.161,9.276-9.276,9.276h-1.508c-15.703,0-28.478,12.775-28.478,28.478c0,5.115-4.161,9.276-9.276,9.276h-50.564    c-5.115,0-9.278-4.161-9.278-9.276c0-15.702-12.775-28.478-28.477-28.478h-1.508c-5.115,0-9.276-4.161-9.276-9.276V28.478z     M121.188,87.696c4.424,9.998,14.432,16.994,26.05,16.994h1.508c5.115,0,9.276,4.161,9.276,9.278    c0,15.702,12.775,28.477,28.478,28.477h50.564c15.702,0,28.477-12.775,28.477-28.477c0-5.115,4.163-9.278,9.278-9.278h1.508    c11.618,0,21.626-6.997,26.05-16.994h38.035v216.787l-41.989,41.987c-1.347,1.347-2.262,3.063-2.63,4.931l-12.275,62.222    c-0.618,3.141,0.367,6.384,2.63,8.647c1.819,1.818,4.268,2.812,6.789,2.812c0.617,0,1.24-0.059,1.857-0.182l45.618-9v30.817H83.15    V87.696H121.188z M386.491,469.785c0,12.69-10.32,23.015-23.002,23.015H60.083c-12.69,0-23.015-10.325-23.015-23.015V64.617    c0-12.684,10.325-23.002,23.015-23.002h58.678v26.881H73.549c-5.302,0-9.6,4.298-9.6,9.6v378.223c0,5.302,4.298,9.6,9.6,9.6    H350.01c5.303,0,9.6-4.298,9.6-9.6v-44.613c0.856-0.448,1.646-1.02,2.336-1.711l24.544-24.545V469.785z M357.892,386.896    c-2.737-4.753-5.85-9.262-9.317-13.476l87.59-87.59c3.354,4.416,6.192,9.234,8.426,14.366L357.892,386.896z M458.951,285.838    c-8.297-15.363-21.008-28.074-36.371-36.371l14.381-14.381c16.206,7.062,29.309,20.164,36.371,36.371L458.951,285.838z"/>
	</g>
</g>
<g>
	<g>
		<path d="M301.058,166.405H122.502c-5.302,0-9.6,4.298-9.6,9.6s4.298,9.6,9.6,9.6h178.556c5.303,0,9.6-4.298,9.6-9.6    S306.361,166.405,301.058,166.405z"/>
	</g>
</g>
<g>
	<g>
		<path d="M301.058,213.932H122.502c-5.302,0-9.6,4.298-9.6,9.6s4.298,9.6,9.6,9.6h178.556c5.303,0,9.6-4.298,9.6-9.6    S306.361,213.932,301.058,213.932z"/>
	</g>
</g>
<g>
	<g>
		<path d="M301.058,261.46h-61.873c-5.302,0-9.6,4.298-9.6,9.6s4.298,9.6,9.6,9.6h61.873c5.303,0,9.6-4.298,9.6-9.6    S306.361,261.46,301.058,261.46z"/>
	</g>
</g>
<g>
	<g>
		<path d="M238.66,47.369h-53.759c-5.302,0-9.6,4.298-9.6,9.6c0,5.302,4.298,9.6,9.6,9.6h53.759c5.302,0,9.6-4.298,9.6-9.6    C248.261,51.667,243.962,47.369,238.66,47.369z"/>
	</g>
</g>
<g>
	<g>
		<path d="M188.624,281.94c-33.879,0-61.441,27.563-61.441,61.441c0,33.879,27.563,61.441,61.441,61.441    c33.878,0,61.441-27.563,61.441-61.441S222.503,281.94,188.624,281.94z M188.624,385.623c-23.291,0-42.241-18.948-42.241-42.241    c0-19.989,13.961-36.768,32.641-41.127v41.127c0,1.956,0.589,3.774,1.594,5.292l-0.003,0.001l0.042,0.064    c0.004,0.006,0.008,0.012,0.012,0.018l22.622,34.237C198.72,384.691,193.779,385.623,188.624,385.623z M219.294,372.382    l-12.82-19.4h23.277C228.025,360.383,224.35,367.039,219.294,372.382z M198.224,333.782v-31.527    c15.593,3.64,27.888,15.934,31.527,31.527H198.224z"/>
	</g>
</g>
<g>
</g>
<g>
</g>
<g>
</g>
<g>
</g>
<g>
</g>
<g>
</g>
<g>
</g>
<g>
</g>
<g>
</g>
<g>
</g>
<g>
</g>
<g>
</g>
<g>
</g>
<g>
</g>
<g>
</g>
</svg>