<?xml version="1.0" encoding="windows-1252"?>
<!-- Generator: Adobe Illustrator 19.0.0, SVG Export Plug-In . SVG Version: 6.00 Build 0)  -->
<svg version="1.1" id="Capa_1" xmlns="http://www.w3.org/2000/svg" xmlns:xlink="http://www.w3.org/1999/xlink" x="0px" y="0px" viewBox="0 0 511.847 511.847" style="enable-background:new 0 0 511.847 511.847;" xml:space="preserve">
<path style="fill:#455A64;" d="M509.784,223.975c-1.603-12.751-8.972-24.061-19.989-30.677c-10.875-6.539-24.153-7.719-36.011-3.2  c-10.23,3.501-21.422-1.526-25.6-11.499c-5.212-11.625-11.58-22.695-19.008-33.045c-6.665-8.599-5.407-20.915,2.859-27.989  c9.74-8.017,15.248-20.071,14.933-32.683c-0.245-12.867-6.397-24.905-16.683-32.64c-16.93-12.908-35.405-23.65-54.997-31.979  c-11.879-5.067-25.429-4.383-36.736,1.856c-11.068,6.059-18.726,16.88-20.757,29.333c-1.995,10.747-12.114,18.005-22.933,16.448  c-12.588-1.312-25.279-1.312-37.867,0c-10.822,1.568-20.949-5.695-22.933-16.448c-2.032-12.453-9.69-23.275-20.757-29.333  c-11.306-6.242-24.858-6.926-36.736-1.856c-19.662,8.277-38.21,18.985-55.211,31.872c-10.279,7.73-16.432,19.759-16.683,32.619  c-0.283,12.64,5.263,24.708,15.04,32.725c8.269,7.075,9.519,19.399,2.837,27.989c-7.43,10.349-13.798,21.42-19.008,33.045  c-4.264,9.999-15.568,14.959-25.813,11.328c-11.799-4.443-24.984-3.232-35.776,3.285c-11.028,6.672-18.37,18.05-19.904,30.848  c-2.735,21.246-2.735,42.754,0,64c1.603,12.751,8.972,24.061,19.989,30.677c10.87,6.555,24.155,7.736,36.011,3.2  c10.231-3.523,21.438,1.511,25.6,11.499c5.209,11.626,11.577,22.697,19.008,33.045c6.665,8.599,5.407,20.915-2.859,27.989  c-9.74,8.017-15.248,20.071-14.933,32.683c0.245,12.867,6.397,24.905,16.683,32.64c16.995,12.884,35.536,23.591,55.189,31.872  c11.879,5.067,25.429,4.383,36.736-1.856c11.068-6.059,18.726-16.88,20.757-29.333c2.014-10.734,12.12-17.982,22.933-16.448  c12.588,1.312,25.279,1.312,37.867,0c10.813-1.534,20.919,5.714,22.933,16.448c2.032,12.453,9.69,23.275,20.757,29.333  c6.191,3.424,13.149,5.223,20.224,5.227c5.674-0.008,11.289-1.154,16.512-3.371c19.654-8.279,38.195-18.986,55.189-31.872  c10.279-7.73,16.432-19.759,16.683-32.619c0.283-12.64-5.263-24.708-15.04-32.725c-8.263-7.066-9.521-19.376-2.859-27.968  c7.439-10.347,13.814-21.418,19.029-33.045c4.202-9.949,15.372-14.966,25.6-11.499h0.235c11.797,4.459,24.989,3.248,35.776-3.285  c10.89-6.66,18.147-17.923,19.712-30.592c2.749-21.302,2.75-42.869,0-64.171V223.975z M255.918,362.642  c-58.91,0-106.667-47.756-106.667-106.667s47.756-106.667,106.667-106.667s106.667,47.756,106.667,106.667  C362.514,314.856,314.799,362.571,255.918,362.642z"/>
<g>
</g>
<g>
</g>
<g>
</g>
<g>
</g>
<g>
</g>
<g>
</g>
<g>
</g>
<g>
</g>
<g>
</g>
<g>
</g>
<g>
</g>
<g>
</g>
<g>
</g>
<g>
</g>
<g>
</g>
</svg>